<svg xmlns="http://www.w3.org/2000/svg" xmlns:xlink="http://www.w3.org/1999/xlink" width="234" height="352" viewBox="0 0 234 352">
  <defs>
    <filter id="filter-1" width="135.5%" height="164.9%" x="-17.7%" y="-32.5%" filterUnits="objectBoundingBox">
      <feGaussianBlur in="SourceGraphic" stdDeviation="10"/>
    </filter>
    <radialGradient id="radialGradient-2" cy="54.265%" r="51.684%" fx="50%" fy="54.265%" gradientTransform="matrix(0 1 -1.35108 0 1.233 .043)">
      <stop offset="0%"/>
      <stop offset="100%" stop-opacity="0"/>
    </radialGradient>
    <polygon id="path-3" points=".961 2.408 .961 109.016 98.234 57.355 10.321 1.214"/>
    <linearGradient id="linearGradient-5" x1="50%" x2="50%" y1="3.249%" y2="96.774%">
      <stop offset="0%" stop-color="#5EBE85"/>
      <stop offset="100%" stop-color="#207145"/>
    </linearGradient>
    <polygon id="path-6" points="97.393 .923 97.393 109.37 1.396 57.355 89.309 1.214"/>
    <polygon id="path-8" points="116.661 201.475 .602 134.317 .602 0 116.661 61.992"/>
    <linearGradient id="linearGradient-10" x1="50%" x2="50%" y1="3.249%" y2="96.774%">
      <stop offset="1.539%" stop-color="#82DA9E"/>
      <stop offset="100%" stop-color="#48AE76"/>
    </linearGradient>
    <polygon id="path-11" points=".961 201.475 117.022 134.317 117.022 0 .961 61.992"/>
    <path id="path-13" d="M0,65.4188654 L116.676033,128.682159 L233.390633,65.4931442 L117.0172,1.10229808 L0,65.4188654 Z M26.9951833,65.3133894 L116.996433,15.8451635 L206.260467,65.237625 L116.676033,113.826389 L26.9951833,65.3133894 Z"/>
    <polygon id="path-15" points=".294 .805 53.298 .805 53.298 51.623 .294 51.623"/>
    <polygon id="path-17" points="0 .871 52.466 .871 52.466 51.136 0 51.136"/>
    <polygon id="path-19" points="1.037 201.402 116.911 134.268 116.911 .476 1.037 63.317"/>
    <path id="path-21" d="M40.24468,21.8656061 L1.65032,1.31969697 C1.50724,1.24484848 1.33476,1.24878788 1.19952,1.33348485 C1.06036,1.41621212 0.97608,1.56787879 0.97608,1.72939394 L0.97608,35.2575758 C0.97608,35.425 1.06624,35.5786364 1.21128,35.6593939 L39.80368,57.3890909 C39.8762,57.4284848 39.95264,57.4481818 40.02908,57.4481818 C40.10944,57.4481818 40.1898,57.4265152 40.26232,57.3851515"/>
    <path id="path-23" d="M40.24468,21.8656061 L1.65032,1.31969697 C1.50724,1.24484848 1.33476,1.24878788 1.19952,1.33348485 C1.06036,1.41621212 0.97608,1.56787879 0.97608,1.72939394 L0.97608,35.2575758 C0.97608,35.425 1.06624,35.5786364 1.21128,35.6593939 L39.80368,57.3890909 C39.8762,57.4284848 39.95264,57.4481818 40.02908,57.4481818 C40.10944,57.4481818 40.1898,57.4265152 40.26232,57.3851515"/>
    <path id="path-25" d="M40.48576,20.6975758 L1.8914,0.153636364 C1.74832,0.0768181818 1.57584,0.0807575758 1.4406,0.165454545 C1.30144,0.248181818 1.21716,0.399848485 1.21716,0.561363636 L1.21716,34.0895455 C1.21716,34.2569697 1.30732,34.4106061 1.45236,34.4933333 L40.04476,56.2210606 C40.11728,56.2604545 40.19372,56.2801515 40.27016,56.2801515 C40.35052,56.2801515 40.43088,56.2584848 40.5034,56.2171212 C40.64452,56.1343939 40.73076,55.9827273 40.73076,55.8192424 L40.73076,21.105303 C40.73076,20.9359091 40.63668,20.7783333 40.48576,20.6975758 Z"/>
    <linearGradient id="linearGradient-27" x1="0%" x2="145.626%" y1="0%" y2="50%">
      <stop offset="0%" stop-color="#FBDE7B"/>
      <stop offset="100%" stop-color="#F6AF67"/>
    </linearGradient>
    <path id="path-28" d="M19.28052,16.3130303 L18.23584,13.9828788 L26.68932,11.1622727 L27.73008,13.4845455 L19.28052,16.3130303 Z M18.11628,19.1277273 L18.97868,17.4357576 L27.89276,26.065 L27.02448,27.7490909 L18.11628,19.1277273 Z"/>
    <linearGradient id="linearGradient-30" x1="50%" x2="50%" y1="0%" y2="100%">
      <stop offset="0%" stop-color="#FBDE7B"/>
      <stop offset="100%" stop-color="#F6AF67"/>
    </linearGradient>
    <path id="path-31" d="M9.60792,9.66136364 C9.61968,12.5154545 7.64596,14.0636364 5.19596,13.1181818 C2.74792,12.1727273 0.74284,9.08030303 0.71932,6.20848485 C0.6958,3.33863636 2.66952,1.79045455 5.13128,2.75166667 C7.59108,3.71287879 9.59616,6.80727273 9.60792,9.66136364 Z M15.97204,7.11454545 C14.602,6.57878788 13.48872,4.86121212 13.4848,3.27560606 C13.48088,1.6919697 14.59024,0.845 15.9642,1.38666667 C17.33816,1.92636364 18.45144,3.64590909 18.45144,5.22560606 C18.45144,6.80530303 17.34208,7.65030303 15.97204,7.11454545 Z M18.92968,20.5478788 C18.92968,22.3363636 17.68116,23.3074242 16.1406,22.7184848 C14.60004,22.1275758 13.3476,20.1933333 13.34172,18.3989394 C13.3378,16.6045455 14.58632,15.6315152 16.13276,16.2283333 C17.67724,16.8251515 18.92968,18.7593939 18.92968,20.5478788 Z"/>
    <path id="path-33" d="M68.8113462,0.115590361 C68.5714615,-0.0296385542 68.2708654,-0.0370481928 68.0235769,0.0948433735 L1.13575,35.7959639 C0.875134615,35.9352651 0.71225,36.2079398 0.71225,36.5043253 L0.71225,116.830735 C0.71225,117.116747 0.864769231,117.38053 1.11205769,117.525759 C1.23644231,117.59541 1.37415385,117.632458 1.51334615,117.632458 C1.65105769,117.632458 1.78876923,117.59541 1.91167308,117.525759 L68.7995,78.8489277 C69.0467885,78.7051807 69.2007885,78.4413976 69.2007885,78.1553855 L69.2007885,0.801722892 C69.2007885,0.520156627 69.0527115,0.260819277 68.8113462,0.115590361"/>
    <path id="path-35" d="M68.8113462,0.115590361 C68.5714615,-0.0296385542 68.2708654,-0.0370481928 68.0235769,0.0948433735 L1.13575,35.7959639 C0.875134615,35.9352651 0.71225,36.2079398 0.71225,36.5043253 L0.71225,116.830735 C0.71225,117.116747 0.864769231,117.38053 1.11205769,117.525759 C1.23644231,117.59541 1.37415385,117.632458 1.51334615,117.632458 C1.65105769,117.632458 1.78876923,117.59541 1.91167308,117.525759 L68.7995,78.8489277 C69.0467885,78.7051807 69.2007885,78.4413976 69.2007885,78.1553855 L69.2007885,0.801722892 C69.2007885,0.520156627 69.0527115,0.260819277 68.8113462,0.115590361"/>
    <linearGradient id="linearGradient-37" x1="50.001%" x2="50.001%" y1="0%" y2="100%">
      <stop offset="0%" stop-color="#0A97A5"/>
      <stop offset="100%" stop-color="#264891"/>
    </linearGradient>
    <path id="path-38" d="M68.3197308,1.0373494 C68.0783654,0.892120482 67.7777692,0.884710843 67.529,1.01808434 L0.644134615,36.7192048 C0.382038462,36.858506 0.219153846,37.1296988 0.219153846,37.4260843 L0.219153846,117.752494 C0.219153846,118.039988 0.371673077,118.303771 0.620442308,118.447518 C0.744826923,118.518651 0.882538462,118.554217 1.01876923,118.554217 C1.15796154,118.554217 1.29715385,118.518651 1.42005769,118.447518 L68.3078846,79.7706867 C68.5551731,79.6284217 68.7062115,79.3631566 68.7062115,79.0771446 L68.7062115,1.72496386 C68.7062115,1.44339759 68.5596154,1.18257831 68.3197308,1.0373494 Z"/>
    <linearGradient id="linearGradient-40" x1="50%" x2="50%" y1="0%" y2="97.676%">
      <stop offset="0%" stop-color="#DBF0FF"/>
      <stop offset="100%" stop-color="#A8C8DA"/>
    </linearGradient>
    <path id="path-41" d="M8.61215385,35.2891446 L6.21923077,36.5028434 C3.41317308,37.925494 1.12242308,36.6199157 1.12982692,33.6027108 L1.18757692,9.69921687 C1.19498077,6.68053012 3.49017308,3.22171084 6.28734615,2.0109759 L8.67286538,0.981036145 C11.4715192,-0.229698795 13.7563462,1.18109639 13.7519038,4.11679518 L13.7208077,27.3637952 C13.7163654,30.299494 11.4182115,33.866494 8.61215385,35.2891446"/>
    <linearGradient id="linearGradient-43" x1="50%" x2="50%" y1="0%" y2="100%">
      <stop offset="0%" stop-color="#D4E4F1"/>
      <stop offset="100%" stop-color="#B5CFDD"/>
    </linearGradient>
    <path id="path-44" d="M5.39628502,39.4266479 C2.42464672,40.8284976 -0.00313160748,39.6252433 3.03207225e-06,36.7499912 L0.0344840671,8.73928233 C0.0391860264,5.86403023 2.46382972,2.56530271 5.42136213,1.40585621 L7.94631429,0.417260132 C10.905414,-0.740726111 13.3269231,0.595411862 13.3269231,3.38742913 L13.3269231,30.6037565 C13.3269231,33.3957738 10.8975774,36.8288452 7.92750645,38.2306949 L5.39628502,39.4266479 Z"/>
    <linearGradient id="linearGradient-46" x1="50%" x2="50%" y1="0%" y2="100%">
      <stop offset="0%" stop-color="#ECF7FF"/>
      <stop offset="100%" stop-color="#CCE5F4"/>
    </linearGradient>
    <path id="path-47" d="M8.02428846,29.7585904 L5.63284615,30.9722892 C2.82530769,32.3949398 0.539,31.0078554 0.550846154,27.8883976 L0.611557692,10.9395904 C0.623403846,7.82013253 2.92303846,4.24127711 5.72169231,2.98460241 L8.10869231,1.91316867 C10.9073462,0.657975904 13.1921731,2.11471084 13.1832885,5.15266265 L13.1403462,21.6494819 C13.1329423,24.6874337 10.8318269,28.3359398 8.02428846,29.7585904"/>
    <path id="path-49" d="M63.8782075,34.1647353 L1.32958491,1.14961765 C1.0970566,1.02782353 0.819811321,1.03525 0.596226415,1.17041176 C0.372641509,1.30408824 0.235509434,1.54619118 0.235509434,1.80611765 L0.235509434,55.6851618 C0.235509434,55.954 0.381584906,56.2020441 0.61709434,56.33275 L63.1642264,91.2520147 C63.279,91.3158824 63.4042075,91.3470735 63.5294151,91.3470735 C63.6605849,91.3470735 63.7902642,91.3129118 63.9065283,91.2445882 C64.1345849,91.1109118 64.2746981,90.8673235 64.2746981,90.6044265 L64.2746981,34.8212353 C64.2746981,34.5464559 64.1226604,34.2939559 63.8782075,34.1647353"/>
    <path id="path-51" d="M63.8782075,34.1647353 L1.32958491,1.14961765 C1.0970566,1.02782353 0.819811321,1.03525 0.596226415,1.17041176 C0.372641509,1.30408824 0.235509434,1.54619118 0.235509434,1.80611765 L0.235509434,55.6851618 C0.235509434,55.954 0.381584906,56.2020441 0.61709434,56.33275 L63.1642264,91.2520147 C63.279,91.3158824 63.4042075,91.3470735 63.5294151,91.3470735 C63.6605849,91.3470735 63.7902642,91.3129118 63.9065283,91.2445882 C64.1345849,91.1109118 64.2746981,90.8673235 64.2746981,90.6044265 L64.2746981,34.8212353 C64.2746981,34.5464559 64.1226604,34.2939559 63.8782075,34.1647353"/>
    <path id="path-53" d="M63.8782075,34.1647353 L1.32958491,1.14961765 C1.0970566,1.02782353 0.819811321,1.03525 0.596226415,1.17041176 C0.372641509,1.30408824 0.235509434,1.54470588 0.235509434,1.80611765 L0.235509434,55.6851618 C0.235509434,55.954 0.381584906,56.2020441 0.61709434,56.33275 L63.1642264,91.2505294 C63.2775094,91.3143971 63.4042075,91.3455882 63.5294151,91.3455882 C63.6590943,91.3455882 63.7902642,91.3114265 63.9065283,91.2445882 C64.1345849,91.1109118 64.2746981,90.8673235 64.2746981,90.6029412 L64.2746981,34.8212353 C64.2746981,34.5464559 64.1211698,34.2939559 63.8782075,34.1647353 Z"/>
    <path id="path-55" d="M35.9136981,16.4258676 L3.95149057,0.387661765 L1.185,3.73848529 C0.949490566,4.27764706 1.72458491,5.19704412 2.90511321,5.78225 L36.4219811,22.5126029 C37.604,23.1052353 38.4103962,22.9819559 38.2151321,22.2378235 L35.9136981,16.4258676 Z"/>
    <linearGradient id="linearGradient-57" x1="50%" x2="50%" y1="4.721%" y2="97.676%">
      <stop offset="0%" stop-color="#C7DBE8"/>
      <stop offset="100%" stop-color="#96B5C7"/>
    </linearGradient>
    <linearGradient id="linearGradient-58" x1="24.385%" y1="0%" y2="100%">
      <stop offset="0%" stop-color="#ECF7FF"/>
      <stop offset="100%" stop-color="#CCE5F4"/>
    </linearGradient>
    <path id="path-59" d="M36.4249623,28.6067647 L2.92449057,11.8214559 C1.74396226,11.2332794 0.970358491,10.3123971 1.20437736,9.77323529 L7.80162264,1.80463235 C8.03564151,1.26992647 8.84203774,1.14070588 9.59477358,1.51945588 L30.9724717,12.2997206 C31.7252075,12.6814412 32.5003019,13.6038088 32.6940755,14.3509118 L38.2166226,28.3349559 C38.4118868,29.0790882 37.6054906,29.2008824 36.4249623,28.6067647"/>
    <path id="path-61" d="M8.76267306,15.8315471 L8.79583019,2.222 C8.79881132,0.911970588 9.7080566,0.303 10.8140566,0.873352941 C11.9230377,1.44370588 12.8263208,2.98098529 12.8233396,4.29101471 L12.7973343,17.9070218 L17.3665849,14.8455147 C18.125283,14.3390294 19.355,14.9673088 20.1122075,16.2491176 C20.8694151,17.5279559 20.8679245,18.9746324 20.1077358,19.4811176 L12.1466226,24.8148088 C11.781434,25.0613676 11.286566,25.0539412 10.7708302,24.7940147 C10.2550943,24.5340882 9.76171698,24.0439412 9.39801887,23.4305147 L1.47715094,10.0123676 C1.1015283,9.37072059 0.913716981,8.68451471 0.915207547,8.09633824 C0.916698113,7.50667647 1.10749057,7.01355882 1.48907547,6.75660294 C2.24926415,6.24269118 3.47898113,6.868 4.23320755,8.15129412 L8.76267306,15.8315471 Z"/>
  </defs>
  <g id="Page-1" fill="none" fill-rule="evenodd">
    <g id="Baseball/Python" transform="translate(-59 -2)">
      <g id="Project-Box/Python" transform="translate(43)">
        <g id="Group">
          <g id="Project-Boxes/Box/Master" transform="translate(0 47)">
            <polygon id="Surface-Border" fill="#000" points="48.95 226.354 133.486 272.191 218.05 226.408 133.733 179.755" filter="url(#filter-1)" opacity=".189"/>
            <polygon id="Surface-Border" fill="url(#radialGradient-2)" points="16.317 243.688 132.993 306.951 249.707 243.762 133.334 179.372" opacity=".032"/>
            <g id="Group" transform="translate(16.317)">
              <g id="Group-7" transform="translate(115.7 11.885)">
                <mask id="mask-4" fill="#fff">
                  <use xlink:href="#path-3"/>
                </mask>
                <use id="Inside-Right" fill="#929292" fill-rule="nonzero" xlink:href="#path-3"/>
                <g id="Colors/Green/Gradient-Dark" fill="url(#linearGradient-5)" mask="url(#mask-4)">
                  <rect id="Gradient" width="125" height="113" transform="translate(-7.417 1.486)"/>
                </g>
              </g>
              <g id="Group-6" transform="translate(19.283 11.885)">
                <mask id="mask-7" fill="#fff">
                  <use xlink:href="#path-6"/>
                </mask>
                <use id="Inside-Left" fill="#797979" fill-rule="nonzero" xlink:href="#path-6"/>
                <g id="Colors/Green/Gradient-Dark" fill="url(#linearGradient-5)" mask="url(#mask-7)">
                  <rect id="Gradient" width="119" height="92" transform="rotate(-90 56.367 49.02)"/>
                </g>
              </g>
              <g id="Group-5" transform="translate(0 65.365)">
                <mask id="mask-9" fill="#fff">
                  <use xlink:href="#path-8"/>
                </mask>
                <use id="Front-Left" fill="#A3A3A3" fill-rule="nonzero" xlink:href="#path-8"/>
                <g id="Colors/Green/Gradient-Clear" fill="url(#linearGradient-10)" mask="url(#mask-9)">
                  <rect width="117" height="202"/>
                </g>
              </g>
              <g id="Group-4" transform="translate(115.7 65.365)">
                <mask id="mask-12" fill="#fff">
                  <use xlink:href="#path-11"/>
                </mask>
                <use id="Front-Right" fill="#727272" fill-rule="nonzero" xlink:href="#path-11"/>
                <g id="Colors/Green/Gradient-Dark" fill="url(#linearGradient-5)" mask="url(#mask-12)">
                  <rect id="Gradient" width="119" height="202" transform="translate(-1.483)"/>
                </g>
              </g>
              <g id="Group-3">
                <mask id="mask-14" fill="#fff">
                  <use xlink:href="#path-13"/>
                </mask>
                <use id="Surface-Border" fill="#BCBCBC" xlink:href="#path-13"/>
                <g id="Colors/Green/Clear" fill="#8DF4C2" mask="url(#mask-14)">
                  <rect width="233" height="233" transform="translate(0 -102.505)"/>
                </g>
              </g>
            </g>
          </g>
          <g id="Project-Boxes/Box/Left-Side/Python" opacity=".8" transform="translate(16 113)">
            <g id="Page-1" transform="translate(23.696 54.956)">
              <g id="Group-3" transform="translate(17.772 32.168)">
                <mask id="mask-16" fill="#fff">
                  <use xlink:href="#path-15"/>
                </mask>
                <path id="Fill-1" fill="#FFF" d="M27.175502,40.2518166 C28.9798981,41.1531546 30.4048066,43.3925615 30.4079428,45.3284251 C30.4110791,47.253964 28.9736256,48.0923219 27.2016375,47.1992436 C25.435922,46.310295 23.9806964,44.0151352 23.9733784,42.1019859 C23.9660605,40.1630249 25.3700605,39.3504785 27.175502,40.2518166 M53.297429,28.7305893 C53.297429,28.4229161 53.2963836,28.1131779 53.2963836,27.8055047 C53.1082079,25.8520893 52.9838028,23.9213881 52.7130389,21.9442262 C52.3105519,19.0110058 51.7899324,16.0437141 50.7267395,12.9886634 C49.6165028,9.80145769 47.9981915,6.95496397 45.223645,4.95095805 C44.853566,4.68561569 44.4761692,4.40581888 44.1019086,4.22617075 C41.7078952,3.08426939 39.3149272,1.97230938 36.8184625,0.804596503 C36.8184625,1.09162053 36.819508,1.36109274 36.819508,1.63056494 C36.8205534,4.03619801 36.8383255,6.45112322 36.819508,8.84746415 C36.7714186,14.608594 33.0110404,17.5717558 27.6835765,16.0313246 C26.9904625,15.8320597 26.2680768,15.4913478 25.5582362,15.1527007 C20.103231,12.5581273 14.6482258,9.95219693 9.19217513,7.38962986 C4.77004557,5.32264385 1.26997707,6.67310224 0.436776768,10.7554512 C0.316553388,11.3408564 0.298781236,12.0047285 0.298781236,12.6624059 C0.292508712,18.0250059 0.337461802,23.4103201 0.294599553,28.752271 C0.271600298,31.6555501 1.43515354,34.4617778 3.63890037,37.2742003 C5.92837171,40.2053558 8.59105823,42.4137889 11.3415601,44.3961132 C11.3415601,44.3961132 15.883913,47.7598696 23.6461617,50.6466293 C26.0893099,51.3755465 28.4707783,51.845316 30.609709,51.5159611 C32.6566427,51.2000282 34.1547306,50.1603404 34.5864894,47.7526424 C34.6398058,47.4573587 34.6805772,47.148653 34.6805772,46.8223955 C34.6878952,44.375464 34.6826681,41.9233702 34.6805772,39.3938418 C28.9840798,36.5442507 23.3074454,33.7225361 17.5701766,30.8873994 C17.5701766,30.1068592 17.5701766,29.4006562 17.5701766,28.6077265 C17.8576673,28.7347192 18.1524759,28.8534521 18.4472846,28.9990291 C26.509569,32.9719372 34.570808,36.916969 42.6320471,41.0540384 C46.3223821,42.960993 48.829301,42.5356193 50.3514335,39.7531381 C53.4228795,34.1582344 53.297429,28.7305893 53.297429,28.7305893" mask="url(#mask-16)"/>
              </g>
              <g id="Group-6" transform="translate(0 .162)">
                <mask id="mask-18" fill="#fff">
                  <use xlink:href="#path-17"/>
                </mask>
                <path id="Fill-4" fill="#FFF" d="M25.5654496,12.6214172 C23.7830073,11.8326173 22.3413722,9.67787217 22.3382359,7.79569659 C22.3340542,5.89700165 23.7453722,5.01528034 25.5382687,5.7989179 C27.3248926,6.58049053 28.7665278,8.73213831 28.7748911,10.6256709 C28.7832545,12.5130088 27.3405739,13.4091846 25.5654496,12.6214172 M26.7216849,37.0246546 C32.2948226,39.6161306 37.8710966,42.1756003 43.4421436,44.9508542 C48.5762046,47.5258108 52.5498487,44.9962825 52.4651696,39.6770458 C52.3794451,34.2050049 52.4411249,28.8000739 52.4379887,23.3641692 C52.4348524,18.4434622 50.112973,13.8531426 45.6741168,10.4346657 C43.8352217,9.02225972 41.8729671,7.8896505 39.9473022,6.85202765 C35.1780929,4.29462288 30.4203833,2.34946722 25.7118085,1.29635746 C24.010909,0.91641198 22.3549626,0.693400502 20.8788286,1.05063185 C19.0064801,1.50078465 18.2077787,3.05050793 18.1189179,5.20835047 C18.0091488,7.84938454 18.0676923,10.5730155 18.0258755,13.2460558 C18.0154213,13.8779217 18.3928182,13.9656808 18.7733513,14.1350043 C23.9440021,16.4518458 29.1156983,18.7841742 34.2873945,21.1288921 C34.5686127,21.2569172 34.8498308,21.3839098 35.190638,21.5398114 C35.1916834,22.2997023 35.1916834,23.0059053 35.1927288,23.8184518 C34.9313736,23.6986864 34.6553826,23.5727262 34.3804369,23.446766 C26.8366812,20.0148671 19.2929254,16.6098123 11.7491696,13.2367637 C8.59513537,11.8336498 5.8394064,11.6354174 3.63879583,13.0209794 C1.95148682,14.078219 1.06810633,15.9036093 0.62171169,18.1068801 C0.62171169,18.1068801 -1.50258317,28.2549348 2.10098198,39.1370689 C3.40043991,42.4368128 5.29474222,45.2998259 8.29719047,47.3089941 C8.94639672,47.7426275 9.61755681,48.1008914 10.2782627,48.425084 C12.1234302,49.3305519 13.9665069,50.1988512 15.917262,51.1363254 C15.917262,50.7780615 15.9162165,50.4951674 15.917262,50.2122732 C15.9287616,47.5784663 15.8127199,44.8744522 15.9799872,42.3263395 C16.3469299,36.7345332 21.1046395,34.4280164 26.7216849,37.0246546" mask="url(#mask-18)"/>
              </g>
            </g>
          </g>
          <g id="Project-Boxes/Box/Right-Side/Baseball" transform="translate(133 113)">
            <mask id="mask-20" fill="#fff">
              <use xlink:href="#path-19"/>
            </mask>
            <path stroke="#979797" stroke-width=".01" d="M1.04172694,201.393363 L116.906154,134.268267 L116.913538,0.480153532 L1.04172694,63.3165939 L1.04172694,201.393363 Z"/>
            <path id="Shape" fill="#FFF" fill-rule="nonzero" d="M86.3100622,54.7458586 C90.5284595,56.5361058 93.5591519,60.2346025 95.0929656,65.4640485 C95.40474,66.4426806 95.6491698,67.4849955 95.8248712,68.585092 C95.9163654,69.0658224 95.9876507,69.5810152 96.0470611,70.156151 C96.0718539,70.2922816 96.0851637,70.4378531 96.0868587,70.5914218 L96.0957648,70.7447357 C96.1790117,71.4221863 96.2266053,72.1271888 96.2383474,72.8568053 L96.2318139,72.9660869 L96.2543833,73.0718129 L96.2478497,73.1598388 C96.2813936,74.134336 96.2648832,75.075257 96.2239176,76.0395615 C95.3452684,76.4589078 94.5012336,76.8478222 93.7129593,77.179516 C93.1995937,77.3965485 92.6987111,77.5675693 92.1905529,77.765168 L91.8629863,74.8309783 C91.8169292,74.3901776 91.5416986,74.1620231 91.1418035,74.2331487 C90.7419084,74.3042741 90.278685,74.6637703 89.9280259,75.1751311 C89.5773669,75.6864919 89.3930563,76.2712848 89.4450796,76.7074553 L89.6660043,78.6877118 C88.7099742,79.0044568 87.7596017,79.3026876 86.8254719,79.549072 L86.8031458,76.3742261 C86.7979946,75.6527946 86.2548506,75.4230511 85.5864665,75.8595853 C84.9052367,76.3104449 84.3648498,77.2585438 84.3697873,77.9837645 L84.3847159,80.1015439 C83.4618891,80.2881217 82.555609,80.430452 81.6586974,80.5462224 L81.9405898,77.2243009 C82.004429,76.4583515 81.5155472,76.134276 80.8478381,76.4999249 C80.180129,76.865574 79.5856784,77.7829013 79.5191182,78.5503408 L79.3309466,80.7676649 C78.4559352,80.8218488 77.5935287,80.847173 76.7480339,80.8312438 L77.3293389,77.3721957 C77.4641898,76.5703175 77.0399492,76.1504038 76.3817709,76.4342924 C75.7235925,76.7181808 75.0807153,77.5983685 74.9458643,78.4002468 L74.553546,80.733263 C73.7324457,80.656136 72.9318464,80.5351727 72.1440223,80.38855 L73.0198488,76.8152176 C73.2226174,75.9878167 72.8675352,75.4782911 72.2267504,75.6771604 C71.5859655,75.8760298 70.9021302,76.7079862 70.6993616,77.535387 L70.1187258,79.9044159 C69.3622351,79.6974527 68.6248789,79.4552472 67.9066569,79.1777994 L69.0585115,75.5610745 C69.3189097,74.7249513 69.0363135,74.1404791 68.4249506,74.2507282 C67.8135878,74.3609772 67.1014282,75.1248372 66.8283384,75.963249 L66.0575964,78.3836429 C65.3732144,78.0499869 64.7027876,77.6934495 64.0585072,77.2928433 L65.4893221,73.6222598 C65.8207059,72.7720067 65.6156357,72.1009917 65.0312849,72.123506 C64.446934,72.1460202 63.7045844,72.853538 63.3732005,73.7037911 L62.4118292,76.1695984 C61.8047063,75.7114472 61.2271608,75.2084362 60.6634611,74.6846209 L62.3519929,71.0204388 C62.6072962,70.4702213 62.6538778,69.9375535 62.4740925,69.6242133 C62.2943072,69.3108731 61.9156518,69.2647836 61.4815634,69.5034039 C61.047475,69.7420241 60.6243443,70.2288589 60.3724558,70.779492 L59.2441439,73.2280498 C58.7235025,72.651295 58.2256861,72.0435183 57.7506945,71.4047197 L59.6797516,67.7848393 C60.1176287,66.952653 60.0682504,66.1583157 59.56907,66.0043332 C59.0698898,65.8503507 58.3071947,66.3941872 57.8594899,67.2233421 L56.5529589,69.6749777 C55.7933495,68.4538342 55.1230079,67.1200069 54.5189024,65.7065573 C65.9685715,55.2915876 78.0016063,51.1429353 86.3100622,54.7458586 Z M61.1774351,133.970445 L61.0045571,134.07569 C60.2587899,134.563174 59.5674436,134.963991 58.8807218,135.317393 L58.7191347,135.411394 C58.5530424,135.517353 58.387387,135.609024 58.2236664,135.685577 C57.7050325,135.95751 57.187591,136.229309 56.6434068,136.477987 C55.5371575,137.018076 54.4423628,137.476853 53.3652593,137.851704 C37.6848052,143.580527 27.1457835,134.546926 28.2135546,116.292734 C29.8676301,115.59937 31.4987468,114.993089 33.0971227,114.499931 L31.8226755,116.954678 C31.5369722,117.499716 31.4503288,118.053256 31.5956643,118.40499 C31.7409998,118.756723 32.0960069,118.852663 32.5258055,118.656358 C32.9556041,118.460053 33.3942253,118.001633 33.675021,117.45527 L35.5594503,113.825579 C36.4931219,113.593022 37.4146185,113.395536 38.3239403,113.23312 L36.9192962,115.599859 C36.6029188,116.131032 36.4705536,116.700582 36.5722217,117.093273 C36.6738898,117.485965 36.994086,117.64191 37.4118078,117.502178 C37.8295295,117.362446 38.2810714,116.948346 38.5957951,116.416367 L40.6994335,112.872206 C41.5921841,112.77037 42.4767829,112.689219 43.3416837,112.657344 L41.7972919,114.954864 C41.4528098,115.467233 41.2758081,116.047629 41.3329613,116.477422 C41.3901146,116.907215 41.6727399,117.12111 42.0743752,117.038533 C42.4760104,116.955957 42.9356377,116.589456 43.2801197,116.077087 L45.5731221,112.666394 C46.412935,112.695299 47.2324658,112.767962 48.040791,112.866012 L46.4037977,115.026585 C46.0299363,115.51588 45.8058626,116.105825 45.8167082,116.572283 C45.8275537,117.038742 46.0716539,117.310121 46.4562686,117.283316 C46.8408833,117.256512 47.3069807,116.935638 47.6774784,116.442603 L50.1285883,113.207786 C50.9096963,113.36645 51.6736371,113.558025 52.4204105,113.782509 L50.6871049,115.813877 C50.0807711,116.524475 49.8242324,117.479992 50.1141098,117.948085 C50.4039871,118.416177 51.1305098,118.219587 51.7368436,117.508989 L54.3542248,114.441243 C55.067791,114.728444 55.7625959,115.048521 56.4386397,115.401471 L54.6021111,117.308955 C53.9688722,117.966865 53.6379921,118.937651 53.8630697,119.477267 C54.0881472,120.016884 54.78395,119.920988 55.4171888,119.263079 L58.1457867,116.428754 C58.7828643,116.841008 59.3950608,117.291238 59.9897371,117.769847 L58.1054538,119.494413 C57.4522008,120.092106 57.0503049,121.067479 57.2077939,121.672969 C57.365283,122.278459 58.0225192,122.284779 58.6757722,121.687086 L61.502836,119.09982 C62.0578607,119.634938 62.5953531,120.194405 63.1045577,120.794577 L61.1572382,122.347331 C60.5223285,122.853507 60.0613817,123.764169 60.1030619,124.429998 C60.1447422,125.095827 60.6747749,125.28879 61.3152362,124.871301 C61.3692744,124.835952 61.4232524,124.796803 61.4768234,124.754104 L64.3956369,122.426585 C64.8587294,123.076789 65.2868301,123.772566 65.7014988,124.485579 L63.7253561,125.835879 C63.0602223,126.290176 62.5330129,127.230153 62.5419503,127.945809 C62.5508877,128.661465 63.0926562,128.887284 63.7580361,128.452695 L66.7176693,126.431177 C66.9092597,126.82748 67.1197088,127.20076 67.2975629,127.613614 C67.5056151,128.115848 67.6976801,128.612038 67.8793911,129.102249 C65.6673436,130.964725 63.4210284,132.596413 61.1774351,133.970445 Z M95.1279694,84.5326139 C94.8796073,85.7306089 94.5829771,86.9458244 94.2392218,88.1735791 C93.9005519,89.4314339 93.5078233,90.7029019 93.0629362,91.9818306 C89.6815273,102.012907 83.8661818,112.091835 76.6389829,120.44718 C75.7305222,121.517038 74.7981296,122.546858 73.8462052,123.531782 C72.9199799,124.507993 71.9769397,125.443809 71.0207475,126.335595 C70.7598671,126.579693 70.5256563,126.786861 70.2780743,127.012768 C70.0648756,126.426842 69.8391207,125.83317 69.5878278,125.225907 C69.4118351,124.817391 69.2029313,124.448907 69.0140905,124.05582 L71.3748255,120.48184 C71.8988375,119.685738 71.9855656,118.801137 71.5687388,118.50398 C71.1519122,118.206822 70.3887044,118.609158 69.8622985,119.403553 L68.0445797,122.155108 C67.5867676,121.352401 67.1074203,120.576961 66.5918646,119.849104 L68.7305556,116.177829 C69.0418446,115.644567 69.1669559,115.077774 69.0586553,114.691438 C68.9503545,114.305102 68.6251396,114.158073 68.2057915,114.30586 C67.7864434,114.453648 67.3368423,114.873739 67.0267301,115.407534 L65.3524213,118.281977 C64.7915322,117.607667 64.2027729,116.973098 63.5861437,116.378272 L65.5195809,112.577963 C65.9477529,111.736328 65.8748713,110.952102 65.3567953,110.826345 C64.8387192,110.700587 64.0716335,111.28092 63.6434615,112.122555 L62.1384292,115.080961 C61.4807816,114.539944 60.7989505,114.036906 60.0929359,113.571847 L61.77682,109.719204 C62.0177798,109.168838 62.046945,108.647255 61.8533123,108.351237 C61.6596797,108.055219 61.2727212,108.029822 60.8384274,108.284627 C60.4041336,108.539432 59.9886068,109.035656 59.7486156,109.586086 L58.4476327,112.563007 C57.7013946,112.160251 56.9264916,111.80623 56.1339832,111.483611 L57.5428978,107.636237 C57.7441058,107.086879 57.724458,106.597188 57.4913556,106.351625 C57.2582533,106.106062 56.8471102,106.141935 56.4127999,106.445729 C55.9784896,106.749524 55.5869943,107.275088 55.3857863,107.824445 L54.2815404,110.839215 C53.4547257,110.577547 52.6068706,110.357007 51.7379751,110.177595 L52.8650946,106.349054 C53.0265005,105.80474 52.9592679,105.349753 52.6888141,105.156101 C52.4183602,104.962449 51.9859511,105.05968 51.5550596,105.411036 C51.1241683,105.762391 50.7605401,106.314261 50.6016453,106.85801 L49.7275829,109.826731 C48.8282136,109.708791 47.9131127,109.625448 46.9759411,109.590108 L47.7939146,105.873718 C47.9686503,105.059778 47.5901101,104.585583 46.9461579,104.811738 C46.3022056,105.037893 45.6340248,105.879696 45.4497387,106.69699 L44.8148876,109.581253 C43.8538813,109.608842 42.8735785,109.684877 41.8793082,109.795663 L42.3848749,106.214416 C42.4967552,105.422929 42.0504395,105.03389 41.388001,105.345473 C40.7255624,105.657056 40.097853,106.55127 39.9859728,107.342757 L39.5923162,110.130116 C38.5785872,110.303536 37.5508258,110.518311 36.509032,110.774441 L36.6983229,107.366541 C36.7254903,106.878329 36.5191496,106.562736 36.1570273,106.538643 C35.7949051,106.514549 35.3320163,106.785617 34.9427267,107.249736 C34.553437,107.713855 34.296889,108.300516 34.2697216,108.788728 L34.1243893,111.407934 C32.2687635,111.974545 30.3830635,112.667185 28.4751163,113.482981 C28.6391521,112.085461 28.8647841,110.65778 29.1511033,109.205692 C29.1968505,108.989614 29.2420014,108.773912 29.3257576,108.432495 C29.4528885,107.777331 29.6150718,107.08443 29.8592472,106.150484 C29.9180614,105.878829 29.9869985,105.612157 30.0535143,105.353519 C30.1396552,105.039531 30.2251999,104.725933 30.3297614,104.40054 L30.3908995,104.173164 C30.4504354,103.927265 30.5224768,103.677671 30.6065559,103.426001 C34.0806952,91.8456056 40.9069301,80.0145579 49.507291,70.6677524 C49.7146253,70.4362704 49.9320581,70.2097735 50.2005792,69.9273543 C50.4435622,69.6590516 50.6960475,69.3961103 50.9491167,69.1328006 C51.1697277,68.8989356 51.3950904,68.6763621 51.6239966,68.4662732 L51.992918,68.1240337 C52.0786088,67.9996754 52.1189052,67.9658338 52.1566222,67.9279913 C52.8299555,69.5515429 53.6064552,71.0663631 54.4826696,72.4657183 L52.2038294,74.4608496 C51.5923406,74.9961236 51.1747278,75.8845258 51.2372282,76.5171335 C51.2997287,77.1497413 51.8220629,77.3212937 52.4462162,76.9142064 C52.5284462,76.8606529 52.6104718,76.7979795 52.6909756,76.7271928 L55.6617535,74.1267036 C56.1937505,74.8399498 56.7538286,75.5142005 57.3419876,76.1494556 L55.0892329,78.3953008 C54.5173195,78.9657256 54.1629325,79.8166792 54.2543757,80.3999591 C54.345819,80.983239 54.8558017,81.1247681 55.4557819,80.7333703 C55.5806142,80.6518433 55.7046885,80.5496765 55.8235232,80.4305607 L58.7213003,77.5418036 C59.3516254,78.1231454 60.0035464,78.6712821 60.68541,79.1744921 L58.5194654,81.6142281 C58.1165084,82.0628585 57.8363814,82.6516519 57.7858855,83.1561253 C57.7353895,83.6605986 57.9223073,84.0029993 58.2753749,84.0527838 C58.6284423,84.1025684 59.0932422,83.8520636 59.4925655,83.3967768 L62.2771793,80.2602348 C62.9991325,80.7052766 63.7496167,81.1028307 64.5193123,81.4679465 L62.4582577,84.0827386 C62.076833,84.5628246 61.8387749,85.1532327 61.8345221,85.6296652 C61.8302694,86.1060976 62.0604749,86.3954354 62.4376827,86.3877583 C62.8148906,86.3800811 63.2812102,86.0765672 63.6594851,85.5925225 L66.3203627,82.2164377 C67.1245228,82.5202136 67.9501735,82.7835043 68.7973148,83.0063096 L66.8609819,85.7732096 C66.5050164,86.2789932 66.3110768,86.8645924 66.3526289,87.3081786 C66.3941809,87.7517648 66.6648695,87.9854946 67.0621559,87.9208298 C67.4594425,87.8561649 67.9225649,87.5029953 68.2760894,86.9951039 L70.7502188,83.4600792 C71.6283449,83.6204146 72.5220688,83.7487205 73.4394815,83.8266075 L71.6801633,86.668442 C71.350012,87.1955544 71.1994458,87.7735681 71.285834,88.1822467 C71.3722221,88.5909256 71.6822597,88.7673275 72.0978153,88.6442396 C72.513371,88.5211518 72.970444,88.1175312 73.2948792,87.5871664 L75.569096,83.9136531 C76.512866,83.9284484 77.4747321,83.8998397 78.4546942,83.8278273 L76.8623288,86.7568847 C76.4107512,87.5902366 76.4461527,88.400172 76.9414649,88.5674023 C77.4367769,88.7346328 78.2050618,88.1960429 78.6588773,87.3634467 L80.7062322,83.5969225 C81.7047204,83.4654363 82.7178085,83.2933456 83.745497,83.0806501 L82.3516327,86.0389609 C81.9526604,86.8860626 82.0675649,87.6370578 82.608279,87.7163559 C83.1489932,87.795654 83.9107596,87.173226 84.309732,86.3261244 L86.0887117,82.5501761 C87.132732,82.2727206 88.1938345,81.9413528 89.2639283,81.5797793 L88.0869006,84.5212807 C87.7487074,85.3704267 87.9429375,86.0499529 88.5211803,86.0406356 C89.099423,86.0313183 89.843649,85.3366706 90.1851978,84.4874705 L91.714369,80.6653049 C92.2120638,80.4706783 92.7018867,80.3045497 93.2043265,80.0920844 C94.0876357,79.7210707 95.0349908,79.2825926 96.0255502,78.8064991 C95.9513328,79.5125289 95.8624057,80.2317208 95.7541334,80.9673416 C95.613972,82.0181363 95.4090224,83.1841548 95.1279694,84.5326139 Z" mask="url(#mask-20)" opacity=".8"/>
          </g>
          <g id="Project-Boxes/Floating-Panel/03" transform="translate(80)">
            <g id="Layer-2" opacity=".85" transform="translate(5.88 1.97)">
              <mask id="mask-22" fill="#fff">
                <use xlink:href="#path-21"/>
              </mask>
              <use id="Shape" fill="#000" fill-rule="nonzero" xlink:href="#path-21"/>
              <g id="Colors/Green/Gradient-Dark" fill="url(#linearGradient-5)" mask="url(#mask-22)">
                <rect id="Gradient" width="49" height="65" transform="translate(-5.88 -1.97)"/>
              </g>
              <mask id="mask-24" fill="#fff">
                <use xlink:href="#path-23"/>
              </mask>
              <use id="Shape" fill="#000" fill-opacity=".3" fill-rule="nonzero" style="mix-blend-mode:multiply" xlink:href="#path-23"/>
            </g>
            <g id="Layer-1" opacity=".9" transform="translate(1.96 5.91)">
              <mask id="mask-26" fill="#fff">
                <use xlink:href="#path-25"/>
              </mask>
              <use id="Shape" fill="#7B7B7B" fill-rule="nonzero" xlink:href="#path-25"/>
              <g id="Colors/Green/Gradient-Clear" fill="url(#linearGradient-10)" mask="url(#mask-26)">
                <rect width="49" height="65" transform="translate(-1.96 -5.91)"/>
              </g>
            </g>
            <g id="Group-3" transform="translate(1.96 15.758)">
              <path id="Shadow" fill="#000" fill-opacity=".3" fill-rule="nonzero" d="M27.0797405,25.9056823 L21.8428989,20.8374625 C21.0649467,21.3395147 20.0406362,21.430982 18.91596,20.9969697 C16.46792,20.0515152 14.46284,16.9590909 14.43932,14.0872727 C14.4158,11.2174242 16.38952,9.66924242 18.85128,10.6304545 C20.0819575,11.1113644 21.1988113,12.1262443 22.0091513,13.3778455 L27.2384459,11.633028 C27.2166923,11.4730394 27.2051923,11.313056 27.2048,11.1543939 C27.20088,9.57075758 28.31024,8.72378788 29.6842,9.26545455 C31.05816,9.80515152 32.17144,11.524697 32.17144,13.1043939 C32.17144,14.6840909 31.06208,15.5290909 29.69204,14.9933333 C29.1746099,14.790991 28.6938036,14.4200758 28.2955517,13.9513629 L23.0629556,15.7029711 C23.2321027,16.3109276 23.3254101,16.9310126 23.32792,17.5401515 C23.3308631,18.2544178 23.2094549,18.8868946 22.9873504,19.4189655 L27.9609152,24.2336066 C28.4578915,23.893606 29.1220698,23.8251256 29.85276,24.1071212 C31.39724,24.7039394 32.64968,26.6381818 32.64968,28.4266667 C32.64968,30.2151515 31.40116,31.1862121 29.8606,30.5972727 C28.32004,30.0063636 27.0676,28.0721212 27.06172,26.2777273 C27.0614397,26.1494216 27.0675628,26.0253155 27.0797405,25.9056823 Z"/>
              <g id="Group">
                <mask id="mask-29" fill="#fff">
                  <use xlink:href="#path-28"/>
                </mask>
                <use id="Combined-Shape" fill="url(#linearGradient-27)" fill-rule="nonzero" xlink:href="#path-28"/>
                <g id="Colors/Yellow/Gradient-Clear" fill="url(#linearGradient-30)" mask="url(#mask-29)">
                  <rect width="29" height="32" transform="rotate(55 12.944 26.242)"/>
                </g>
              </g>
              <g id="Group-2" transform="translate(11.76 7.879)">
                <mask id="mask-32" fill="#fff">
                  <use xlink:href="#path-31"/>
                </mask>
                <use id="Combined-Shape" fill="#FFF" fill-rule="nonzero" xlink:href="#path-31"/>
                <g id="Colors/Gray/Clear" fill="#E0F1FF" mask="url(#mask-32)">
                  <rect width="26" height="25" transform="rotate(55 14.632 10.991)"/>
                </g>
              </g>
            </g>
          </g>
          <g id="Project-Boxes/Floating-Panel/02" transform="translate(154 2)">
            <g id="Layer" opacity=".85">
              <mask id="mask-34" fill="#fff">
                <use xlink:href="#path-33"/>
              </mask>
              <use id="Shape" fill="#000" fill-opacity=".3" fill-rule="nonzero" xlink:href="#path-33"/>
              <g id="Colors/Green/Gradient-Dark" fill="url(#linearGradient-5)" mask="url(#mask-34)">
                <rect id="Gradient" width="86" height="132" transform="translate(-3.468 -5.007)"/>
              </g>
              <mask id="mask-36" fill="#fff">
                <use xlink:href="#path-35"/>
              </mask>
              <use id="Shape" fill="#000" fill-opacity=".3" fill-rule="nonzero" style="mix-blend-mode:multiply" xlink:href="#path-35"/>
            </g>
            <g id="Layer" opacity=".9" transform="translate(6.897 3.884)">
              <mask id="mask-39" fill="#fff">
                <use xlink:href="#path-38"/>
              </mask>
              <use id="Shape" fill="url(#linearGradient-37)" fill-rule="nonzero" xlink:href="#path-38"/>
              <g id="Colors/Green/Gradient-Clear" fill="url(#linearGradient-10)" mask="url(#mask-39)">
                <rect width="89" height="136" transform="translate(-10.365 -8.892)"/>
              </g>
            </g>
            <g id="Group-4" transform="translate(17.77 31.12)">
              <path id="Combined-Shape" fill="#000" fill-opacity=".2" fill-rule="nonzero" d="M8.21530769,54.9217229 L5.67578846,56.1946988 C2.87121154,57.6010482 0.584903846,56.2006265 0.595269231,53.0811687 L0.657461538,36.1323614 C0.667826923,33.0129036 2.96746154,29.4459036 5.76759615,28.2040482 L8.30119231,27.080747 C11.0998462,25.8388916 13.3831923,27.3074819 13.3757885,30.3454337 L13.3328462,46.842253 C13.3239615,49.8802048 11.0228462,53.5153735 8.21530769,54.9217229 Z M23.7900385,47.1149277 L21.2505192,48.3879036 C18.4444615,49.794253 16.1551923,48.4753373 16.1625962,45.4581325 L16.2203462,21.5546386 C16.22775,18.5359518 18.5214615,15.088988 21.3201154,13.8930723 L23.8522308,12.8097831 C26.6494038,11.6138675 28.9357115,13.0365181 28.9312692,15.9722169 L28.8986923,39.2192169 C28.89425,42.1549157 26.5975769,45.7070964 23.7900385,47.1149277 Z M39.36625,39.3066506 L36.8267308,40.5796265 C34.0206731,41.9859759 31.7269615,40.7515301 31.7314038,37.8336145 L31.7625,9.40727711 C31.7654615,6.48936145 34.0562115,3.15206024 36.8533846,1.98874699 L39.3840192,0.936578313 C42.1797115,-0.225253012 44.4675,1.14256627 44.4675,3.97601205 L44.4675,31.5961807 C44.4675,34.4296265 42.1723077,37.9003012 39.36625,39.3066506 Z"/>
              <g id="Group-3" transform="translate(17.77 13.337)">
                <mask id="mask-42" fill="#fff">
                  <use xlink:href="#path-41"/>
                </mask>
                <use id="Shape" fill="url(#linearGradient-40)" fill-rule="nonzero" xlink:href="#path-41"/>
                <g id="Colors/Gray/Gradient-Clear" fill="url(#linearGradient-43)" mask="url(#mask-42)">
                  <rect width="22" height="46" transform="translate(-4.442 -4.446)"/>
                </g>
              </g>
              <g id="Group-2" transform="translate(34.058 1.482)">
                <mask id="mask-45" fill="#fff">
                  <use xlink:href="#path-44"/>
                </mask>
                <use id="Shape" fill="url(#linearGradient-30)" fill-rule="nonzero" xlink:href="#path-44"/>
                <g id="Colors/Yellow/Gradient-Clear" fill="url(#linearGradient-30)" mask="url(#mask-45)">
                  <rect width="25" height="53" transform="translate(-5.923 -7.41)"/>
                </g>
              </g>
              <g id="Group" transform="translate(2.962 26.675)">
                <mask id="mask-48" fill="#fff">
                  <use xlink:href="#path-47"/>
                </mask>
                <use id="Shape" fill="url(#linearGradient-46)" fill-rule="nonzero" xlink:href="#path-47"/>
                <g id="Colors/Gray/Clear" fill="#E0F1FF" mask="url(#mask-48)">
                  <rect width="27" height="44" transform="translate(-7.404 -7.41)"/>
                </g>
              </g>
            </g>
          </g>
          <g id="Project-Boxes/Floating-Panel/01" transform="translate(48 40)">
            <g id="Layer-3" opacity=".85" transform="translate(13.415)">
              <mask id="mask-50" fill="#fff">
                <use xlink:href="#path-49"/>
              </mask>
              <use id="Shape" fill="#101010" fill-rule="nonzero" xlink:href="#path-49"/>
              <g id="Colors/Green/Gradient-Dark" fill="url(#linearGradient-5)" mask="url(#mask-50)">
                <rect id="Gradient" width="70" height="98" transform="translate(-2.981 -1.485)"/>
              </g>
              <path id="Shape" fill="#000" fill-opacity=".3" fill-rule="nonzero" d="M63.8782075,34.1647353 L1.32958491,1.14961765 C1.0970566,1.02782353 0.819811321,1.03525 0.596226415,1.17041176 C0.372641509,1.30408824 0.235509434,1.54619118 0.235509434,1.80611765 L0.235509434,55.6851618 C0.235509434,55.954 0.381584906,56.2020441 0.61709434,56.33275 L63.1642264,91.2520147 C63.279,91.3158824 63.4042075,91.3470735 63.5294151,91.3470735 C63.6605849,91.3470735 63.7902642,91.3129118 63.9065283,91.2445882 C64.1345849,91.1109118 64.2746981,90.8673235 64.2746981,90.6044265 L64.2746981,34.8212353 C64.2746981,34.5464559 64.1226604,34.2939559 63.8782075,34.1647353" mask="url(#mask-50)" style="mix-blend-mode:multiply"/>
            </g>
            <g id="Layer-2" opacity=".85" transform="translate(5.962 4.456)">
              <mask id="mask-52" fill="#fff">
                <use xlink:href="#path-51"/>
              </mask>
              <use id="Shape" fill="#6C6C6C" fill-rule="nonzero" xlink:href="#path-51"/>
              <g id="Colors/Green/Gradient-Clear" fill="url(#linearGradient-10)" mask="url(#mask-52)" opacity=".802">
                <rect width="72" height="98" transform="translate(-2.981 -1.485)"/>
              </g>
            </g>
            <g id="Layer-1" opacity=".9" transform="translate(0 8.912)">
              <mask id="mask-54" fill="#fff">
                <use xlink:href="#path-53"/>
              </mask>
              <use id="Shape" fill="#929292" fill-rule="nonzero" xlink:href="#path-53"/>
              <g id="Colors/Green/Gradient-Clear" fill="url(#linearGradient-10)" mask="url(#mask-54)">
                <rect width="73" height="98" transform="translate(-5.962 -5.941)"/>
              </g>
            </g>
            <g id="Group-4" transform="rotate(2 -950.988 425.123)">
              <path id="Shadow" fill="#000" fill-opacity=".2" fill-rule="nonzero" d="M39.4060943,41.9744118 L5.90562264,25.1891029 C4.72509434,24.6009265 3.95149057,23.6800441 4.18550943,23.1408824 L10.7827547,15.1722794 C11.0167736,14.6375735 11.8231698,14.5083529 12.5759057,14.8871029 L33.9536038,25.6673676 C34.7063396,26.0490882 35.481434,26.9714559 35.6752075,27.7185588 L41.1977547,41.7026029 C41.3930189,42.4467353 40.5866226,42.5685294 39.4060943,41.9744118"/>
              <path id="Combined-Shape" fill="#000" fill-opacity=".2" d="M20.6872014,18.8021353 L20.7203585,5.19258824 C20.7233396,3.88255882 21.6325849,3.27358824 22.7385849,3.84394118 C23.847566,4.41429412 24.7508491,5.95157353 24.7478679,7.26160294 L24.7218626,20.87761 L29.2911132,17.8161029 C30.0498113,17.3096176 31.2795283,17.9378971 32.0367358,19.2197059 C32.7939434,20.4985441 32.7924528,21.9452206 32.0322642,22.4517059 L24.0711509,27.7853971 C23.7059623,28.0319559 23.2110943,28.0245294 22.6953585,27.7646029 C22.1796226,27.5046765 21.6862453,27.0145294 21.3225472,26.4011029 L13.4016792,12.9829559 C13.0260566,12.3413088 12.8382453,11.6551029 12.8397358,11.0669265 C12.8412264,10.4772647 13.0320189,9.98414706 13.4136038,9.72719118 C14.1737925,9.21327941 15.4035094,9.83858824 16.1577358,11.1218824 L20.6872014,18.8021353 Z" transform="rotate(-2 22.722 15.797)"/>
              <g id="Group-3" transform="translate(0 22.28)">
                <mask id="mask-56" fill="#fff">
                  <use xlink:href="#path-55"/>
                </mask>
                <use id="Shape" fill="#000" fill-rule="nonzero" xlink:href="#path-55"/>
                <g id="Colors/Gray/Gradient-Dark" fill="url(#linearGradient-57)" mask="url(#mask-56)" opacity=".847">
                  <rect width="43" height="28" transform="translate(-1.49 -2.97)"/>
                </g>
              </g>
              <g id="Group-2" transform="translate(0 11.882)">
                <mask id="mask-60" fill="#fff">
                  <use xlink:href="#path-59"/>
                </mask>
                <use id="Shape" fill="url(#linearGradient-58)" fill-rule="nonzero" xlink:href="#path-59"/>
                <g id="Colors/Gray/Clear" fill="#E0F1FF" mask="url(#mask-60)">
                  <rect width="43" height="33" transform="translate(-1.49 -1.485)"/>
                </g>
              </g>
              <g id="Group" transform="rotate(-3 43.266 -157.4)">
                <mask id="mask-62" fill="#fff">
                  <use xlink:href="#path-61"/>
                </mask>
                <use id="Arrow" fill="url(#linearGradient-30)" fill-rule="nonzero" xlink:href="#path-61"/>
                <g id="Colors/Yellow/Gradient-Clear" fill="url(#linearGradient-30)" mask="url(#mask-62)">
                  <rect width="42" height="42" transform="translate(-7.453 -7.426)"/>
                </g>
              </g>
            </g>
          </g>
        </g>
      </g>
    </g>
  </g>
</svg>
